<svg width="580" height="74" viewBox="0 0 580 74" fill="none" xmlns="http://www.w3.org/2000/svg">
<g clip-path="url(#clip0_460_5)">
<path d="M69.2666 55.2941C67.3713 58.6349 64.9548 61.685 62.0847 64.3157C56.0739 57.1268 50.415 49.2144 45.2773 40.5783C45.6023 40.3957 45.9204 40.1995 46.2385 40.0034C51.7079 46.5633 59.6411 51.3108 69.2734 55.3009L69.2666 55.2941Z" fill="#F7F7F7"/>
<path d="M54.8557 69.4825C52.7302 70.639 46.4892 72.8774 44.3096 73.317C43.3417 63.4298 41.602 53.3397 38.7861 43.5336C38.9757 43.466 39.1652 43.4051 39.3547 43.3307C39.5443 43.2564 39.7338 43.1887 39.9233 43.1211C44.0727 52.4402 49.2374 61.286 54.8557 69.4825Z" fill="#F7F7F7"/>
<path d="M32.9983 45.0283C34.6161 54.9561 35.4284 64.6202 35.4419 74.0002C31.5497 73.8311 27.732 73.0466 24.1377 71.7076C29.0994 62.3546 31.9626 52.9611 31.9356 45.1974C32.3079 45.1433 32.6328 45.0959 32.9983 45.0283Z" fill="#F7F7F7"/>
<path d="M72.7057 47.0705C74.7499 39.8546 74.6281 31.9489 71.8663 24.361C65.4697 6.81829 47.1934 -2.96072 29.4248 0.799397C33.9871 13.2159 38.6983 24.0432 45.3252 31.5296C55.9998 43.5877 72.5297 47.0232 72.7057 47.0705Z" fill="#F7F7F7"/>
<path d="M16.2116 67.6159C10.0044 63.4027 5.00888 57.2689 2.24714 49.681C-4.14955 32.1383 3.56709 12.9049 19.596 4.37695C24.0907 16.8138 27.4481 28.1347 27.1841 38.1301C26.7644 54.2188 16.3131 67.4672 16.2048 67.6159H16.2116Z" fill="#F7F7F7"/>
<path d="M148.366 37.7487V36.1028C148.366 22.7206 158.02 8.21191 177.255 8.21191C196.489 8.21191 206.069 22.7206 206.069 36.1028V37.7487C206.069 49.937 196.941 65.788 177.255 65.788C157.568 65.788 148.366 49.937 148.366 37.7487ZM195.287 37.0067C195.287 26.1673 188.327 18.0935 177.248 18.0935C166.169 18.0935 159.134 26.1673 159.134 37.0067C159.134 47.2525 166.021 55.9267 177.248 55.9267C188.475 55.9267 195.287 47.2525 195.287 37.0067Z" fill="#F7F7F7"/>
<path d="M213.097 37.7487V36.1028C213.097 22.7206 222.751 8.21191 241.985 8.21191C261.22 8.21191 270.8 22.7206 270.8 36.1028V37.7487C270.8 49.937 261.672 65.788 241.985 65.788C222.299 65.788 213.097 49.937 213.097 37.7487ZM260.018 37.0067C260.018 26.1673 253.057 18.0935 241.979 18.0935C230.9 18.0935 223.865 26.1673 223.865 37.0067C223.865 47.2525 230.751 55.9267 241.979 55.9267C253.206 55.9267 260.018 47.2525 260.018 37.0067Z" fill="#F7F7F7"/>
<path d="M290.25 64.3717V19.1324H274.459V9.78369H316.668V19.1324H300.877V64.3649H290.25V64.3717Z" fill="#F7F7F7"/>
<path d="M319.882 47.8462H330.286C330.286 52.3317 333.654 56.6688 342.337 56.6688C350.121 56.6688 354.009 53.0804 354.009 48.4465C354.009 44.6356 350.789 42.1669 343.903 41.5666L339.116 41.1956C328.638 40.2985 321.9 34.3898 321.9 25.122C321.9 14.802 329.759 8.22559 341.736 8.22559C353.712 8.22559 361.868 15.1056 361.868 25.7223H351.464C351.464 21.3111 348.244 17.3449 341.736 17.3449C335.227 17.3449 332.304 20.9333 332.304 25.122C332.304 28.4878 334.627 31.3275 340.088 31.7727L344.875 32.2179C356.548 33.1892 364.406 38.8011 364.406 48.4398C364.406 58.834 355.798 65.7882 342.33 65.7882C327.808 65.7882 319.882 58.2337 319.882 47.8462Z" fill="#F7F7F7"/>
<path d="M383.417 64.3717V19.1324H367.626V9.78369H409.835V19.1324H394.044V64.3649H383.417V64.3717Z" fill="#F7F7F7"/>
<path d="M413.494 37.7487V36.1028C413.494 22.7206 423.148 8.21191 442.383 8.21191C461.617 8.21191 471.197 22.7206 471.197 36.1028V37.7487C471.197 49.937 462.069 65.788 442.383 65.788C422.696 65.788 413.494 49.937 413.494 37.7487ZM460.422 37.0067C460.422 26.1673 453.462 18.0935 442.383 18.0935C431.304 18.0935 424.269 26.1673 424.269 37.0067C424.269 47.2525 431.155 55.9267 442.383 55.9267C453.61 55.9267 460.422 47.2525 460.422 37.0067Z" fill="#F7F7F7"/>
<path d="M481.446 64.3713V9.79004H498.885L521.859 55.5487H522.831V9.79004H532.857V64.3713H515.344L492.37 18.6126H491.323V64.3713H481.446Z" fill="#F7F7F7"/>
<path d="M546.325 64.3713V9.79004H579.406V18.761H556.729V32.1433H578.056V41.1142H556.729V55.3936H580V64.3645H546.325V64.3713Z" fill="#F7F7F7"/>
<path d="M144.072 61.1812C140.44 58.4697 133.223 52.2642 129.827 44.2915C136.356 41.8093 140.211 36.5145 140.211 28.4069V27.213C140.211 15.173 131.826 9.41943 118.735 9.41943H98.4541V64.3784H109.081V46.133H118.958L119.261 46.079C122.529 55.286 130.61 62.5235 133.966 64.3784H147.124V63.3127C146.266 62.7528 145.213 62.0446 144.066 61.188L144.072 61.1812ZM109.081 18.4579H119.856C125.695 18.4579 129.436 22.343 129.436 28.0291C129.436 33.7152 125.695 37.5262 119.856 37.5262H109.081V18.4579Z" fill="#F7F7F7"/>
</g>
<defs>
<clipPath id="clip0_460_5">
<rect width="580" height="74" fill="white"/>
</clipPath>
</defs>
</svg>
